<svg width="20" height="20" viewBox="0 0 20 20" fill="none" xmlns="http://www.w3.org/2000/svg">
<g clip-path="url(#clip0_161_706)">
<path d="M6 14.7867L10 10.7867L14 14.7867L14.7867 14L10.7867 10L14.7867 6L14 5.21333L10 9.21333L6 5.21333L5.21333 6L9.21333 10L5.21333 14L6 14.7867ZM10.0033 20C8.62111 20 7.32111 19.7378 6.10333 19.2133C4.8863 18.6881 3.82741 17.9756 2.92667 17.0756C2.02592 16.1756 1.31297 15.1178 0.787778 13.9022C0.262592 12.6867 0 11.387 0 10.0033C0 8.61963 0.262592 7.31963 0.787778 6.10333C1.31222 4.8863 2.0237 3.82741 2.92222 2.92667C3.82074 2.02592 4.87889 1.31297 6.09667 0.787778C7.31444 0.262592 8.61444 0 9.99667 0C11.3789 0 12.6789 0.262592 13.8967 0.787778C15.1137 1.31222 16.1726 2.02408 17.0733 2.92333C17.9741 3.82259 18.687 4.88074 19.2122 6.09778C19.7374 7.31481 20 8.61444 20 9.99667C20 11.3789 19.7378 12.6789 19.2133 13.8967C18.6889 15.1144 17.9763 16.1733 17.0756 17.0733C16.1748 17.9733 15.117 18.6863 13.9022 19.2122C12.6874 19.7381 11.3878 20.0008 10.0033 20ZM10 18.8889C12.4814 18.8889 14.5833 18.0278 16.3056 16.3056C18.0278 14.5833 18.8889 12.4814 18.8889 10C18.8889 7.51852 18.0278 5.41667 16.3056 3.69444C14.5833 1.97222 12.4814 1.11111 10 1.11111C7.51852 1.11111 5.41667 1.97222 3.69444 3.69444C1.97222 5.41667 1.11111 7.51852 1.11111 10C1.11111 12.4814 1.97222 14.5833 3.69444 16.3056C5.41667 18.0278 7.51852 18.8889 10 18.8889Z" fill="#EB1C22"/>
</g>
<defs>
<clipPath id="clip0_161_706">
<rect width="20" height="20" fill="white"/>
</clipPath>
</defs>
</svg>
