<svg width="36" height="22" viewBox="0 0 36 22" fill="none" xmlns="http://www.w3.org/2000/svg">
<path d="M1.4772 1.61783C1.97487 1.12031 2.64976 0.84082 3.35346 0.84082C4.05717 0.84082 4.73206 1.12031 5.22973 1.61783L18.3662 14.7543L31.5027 1.61783C32.0032 1.13441 32.6736 0.866917 33.3694 0.872964C34.0652 0.879011 34.7309 1.15811 35.2229 1.65016C35.7149 2.1422 35.994 2.80781 36.0001 3.50364C36.0061 4.19947 35.7386 4.86983 35.2552 5.37035L20.2425 20.3831C19.7448 20.8806 19.0699 21.1601 18.3662 21.1601C17.6625 21.1601 16.9876 20.8806 16.49 20.3831L1.4772 5.37035C0.979685 4.87268 0.700195 4.19779 0.700195 3.49409C0.700195 2.79039 0.979685 2.1155 1.4772 1.61783Z" fill="black"/>
</svg>
