<svg width="30" height="30" viewBox="0 0 30 30" fill="none" xmlns="http://www.w3.org/2000/svg">
<g clip-path="url(#clip0_132_1244)">
<rect width="30" height="30" rx="15" fill="#EB1C22"/>
<path d="M16.1058 6.272L15.8418 18.272H14.0178L13.7538 6.272H16.1058ZM15.0258 23.144C14.6098 23.144 14.2578 23 13.9698 22.712C13.6818 22.424 13.5378 22.072 13.5378 21.656C13.5378 21.24 13.6818 20.888 13.9698 20.6C14.2578 20.312 14.6098 20.168 15.0258 20.168C15.4258 20.168 15.7618 20.312 16.0338 20.6C16.3218 20.888 16.4658 21.24 16.4658 21.656C16.4658 22.072 16.3218 22.424 16.0338 22.712C15.7618 23 15.4258 23.144 15.0258 23.144Z" fill="white"/>
</g>
<defs>
<clipPath id="clip0_132_1244">
<rect width="30" height="30" rx="15" fill="white"/>
</clipPath>
</defs>
</svg>
