<svg width="15" height="11" viewBox="0 0 15 11" fill="none" xmlns="http://www.w3.org/2000/svg">
<path opacity="0.7" d="M0.5 1.10636C0.5 0.931555 0.56944 0.763912 0.693043 0.640309C0.816647 0.516705 0.984289 0.447266 1.15909 0.447266H14.3409C14.5157 0.447266 14.6834 0.516705 14.807 0.640309C14.9306 0.763912 15 0.931555 15 1.10636C15 1.28116 14.9306 1.4488 14.807 1.5724C14.6834 1.69601 14.5157 1.76545 14.3409 1.76545H1.15909C0.984289 1.76545 0.816647 1.69601 0.693043 1.5724C0.56944 1.4488 0.5 1.28116 0.5 1.10636ZM2.69697 5.5003C2.69697 5.32549 2.76641 5.15785 2.89001 5.03425C3.01362 4.91064 3.18126 4.8412 3.35606 4.8412H12.1439C12.3187 4.8412 12.4864 4.91064 12.61 5.03425C12.7336 5.15785 12.803 5.32549 12.803 5.5003C12.803 5.6751 12.7336 5.84274 12.61 5.96634C12.4864 6.08995 12.3187 6.15939 12.1439 6.15939H3.35606C3.18126 6.15939 3.01362 6.08995 2.89001 5.96634C2.76641 5.84274 2.69697 5.6751 2.69697 5.5003ZM5.33333 9.89423C5.33333 9.71943 5.40277 9.55179 5.52638 9.42819C5.64998 9.30458 5.81762 9.23514 5.99242 9.23514H9.50758C9.68238 9.23514 9.85002 9.30458 9.97362 9.42819C10.0972 9.55179 10.1667 9.71943 10.1667 9.89423C10.1667 10.069 10.0972 10.2367 9.97362 10.3603C9.85002 10.4839 9.68238 10.5533 9.50758 10.5533H5.99242C5.81762 10.5533 5.64998 10.4839 5.52638 10.3603C5.40277 10.2367 5.33333 10.069 5.33333 9.89423Z" fill="black"/>
</svg>
