<svg width="20" height="18" viewBox="0 0 20 18" fill="none" xmlns="http://www.w3.org/2000/svg">
<path d="M2.70837 8.99984V0.666504M17.2917 17.3332V14.2082M2.70837 17.3332V13.1665M17.2917 10.0415V0.666504M10 3.7915V0.666504M10 17.3332V7.95817" stroke="#2A2A2A" stroke-linecap="round"/>
<path d="M2.70833 13.1667C3.85893 13.1667 4.79167 12.2339 4.79167 11.0833C4.79167 9.93274 3.85893 9 2.70833 9C1.55774 9 0.625 9.93274 0.625 11.0833C0.625 12.2339 1.55774 13.1667 2.70833 13.1667Z" stroke="#2A2A2A" stroke-linecap="round"/>
<path d="M9.99996 7.95817C11.1506 7.95817 12.0833 7.02543 12.0833 5.87484C12.0833 4.72424 11.1506 3.7915 9.99996 3.7915C8.84937 3.7915 7.91663 4.72424 7.91663 5.87484C7.91663 7.02543 8.84937 7.95817 9.99996 7.95817Z" stroke="#2A2A2A" stroke-linecap="round"/>
<path d="M17.2917 14.2082C18.4423 14.2082 19.375 13.2754 19.375 12.1248C19.375 10.9742 18.4423 10.0415 17.2917 10.0415C16.1411 10.0415 15.2084 10.9742 15.2084 12.1248C15.2084 13.2754 16.1411 14.2082 17.2917 14.2082Z" stroke="#2A2A2A" stroke-linecap="round"/>
</svg>
