<!DOCTYPE svg PUBLIC "-//W3C//DTD SVG 1.1//EN" "http://www.w3.org/Graphics/SVG/1.1/DTD/svg11.dtd">
<!-- Uploaded to: SVG Repo, www.svgrepo.com, Transformed by: SVG Repo Mixer Tools -->
<svg fill="#7c3aed" width="129px" height="129px" viewBox="-2.4 -2.4 28.80 28.80" xmlns="http://www.w3.org/2000/svg" stroke="#7c3aed" transform="matrix(1, 0, 0, 1, 0, 0)rotate(0)" stroke-width="0.00024000000000000003">
<g id="SVGRepo_bgCarrier" stroke-width="0"/>
<g id="SVGRepo_tracerCarrier" stroke-linecap="round" stroke-linejoin="round" stroke="#CCCCCC" stroke-width="0.096"/>
<g id="SVGRepo_iconCarrier">
<path d="M19.071 4.929a9.936 9.936 0 0 0-7.07-2.938 9.943 9.943 0 0 0-7.072 2.938c-3.899 3.898-3.899 10.243 0 14.142a9.94 9.94 0 0 0 7.073 2.938 9.936 9.936 0 0 0 7.07-2.937c3.899-3.898 3.899-10.243-.001-14.143zM12.181 4h-.359c.061-.001.119-.009.18-.009s.118.008.179.009zm6.062 13H16l-1.258 2.516a7.956 7.956 0 0 1-2.741.493 7.96 7.96 0 0 1-2.746-.494L8 17.01H5.765a7.96 7.96 0 0 1-1.623-3.532L6 11 4.784 8.567a7.936 7.936 0 0 1 1.559-2.224 7.994 7.994 0 0 1 3.22-1.969L12 6l2.438-1.625a8.01 8.01 0 0 1 3.22 1.968 7.94 7.94 0 0 1 1.558 2.221L18 11l1.858 2.478A7.952 7.952 0 0 1 18.243 17z"/>
<path d="m8.5 11 1.5 4h4l1.5-4L12 8.5z"/>
</g>
</svg>