<svg width="20" height="20" viewBox="0 0 20 20" fill="none" xmlns="http://www.w3.org/2000/svg">
<g clip-path="url(#clip0_161_708)">
<path d="M10 4.5C9.86739 4.5 9.74021 4.55268 9.64645 4.64645C9.55268 4.74021 9.5 4.86739 9.5 5V9.134L7.652 8.067C7.59512 8.03365 7.53219 8.01188 7.46686 8.00295C7.40153 7.99402 7.33508 7.9981 7.27133 8.01495C7.20758 8.03181 7.14779 8.0611 7.09541 8.10116C7.04303 8.14121 6.99909 8.19123 6.96612 8.24834C6.93315 8.30544 6.9118 8.3685 6.9033 8.43389C6.8948 8.49928 6.89932 8.56571 6.9166 8.62935C6.93387 8.69298 6.96357 8.75257 7.00397 8.80469C7.04437 8.8568 7.09468 8.90041 7.152 8.933L9.75 10.433C9.82601 10.4769 9.91223 10.5 10 10.5C10.0878 10.5 10.174 10.4769 10.25 10.433C10.326 10.3891 10.3891 10.326 10.433 10.25C10.4769 10.174 10.5 10.0878 10.5 10V5C10.5 4.86739 10.4473 4.74021 10.3536 4.64645C10.2598 4.55268 10.1326 4.5 10 4.5ZM10 0C4.477 0 0 4.477 0 10C0 15.523 4.477 20 10 20C15.52 19.994 19.994 15.52 20 10C20 4.477 15.523 0 10 0ZM10 19C8.8181 19 7.64778 18.7672 6.55585 18.3149C5.46392 17.8626 4.47177 17.1997 3.63604 16.364C2.80031 15.5282 2.13738 14.5361 1.68508 13.4442C1.23279 12.3522 1 11.1819 1 10C1 8.8181 1.23279 7.64778 1.68508 6.55585C2.13738 5.46392 2.80031 4.47177 3.63604 3.63604C4.47177 2.80031 5.46392 2.13738 6.55585 1.68508C7.64778 1.23279 8.8181 1 10 1C12.3861 1.00265 14.6738 1.95171 16.361 3.63896C18.0483 5.32622 18.9974 7.61386 19 10C19 12.3869 18.0518 14.6761 16.364 16.364C14.6761 18.0518 12.3869 19 10 19Z" fill="#FF9F05"/>
</g>
<defs>
<clipPath id="clip0_161_708">
<rect width="20" height="20" fill="white"/>
</clipPath>
</defs>
</svg>
