<svg width="20" height="20" viewBox="0 0 20 20" fill="none" xmlns="http://www.w3.org/2000/svg">
<mask id="path-1-inside-1_91_808" fill="white">
<path d="M18.4833 19.75L11.6583 12.925C11.1167 13.3583 10.4938 13.7014 9.78958 13.9542C9.08542 14.2069 8.33611 14.3333 7.54167 14.3333C5.57361 14.3333 3.90817 13.6516 2.54533 12.288C1.1825 10.9244 0.500723 9.259 0.500001 7.29167C0.499278 5.32433 1.18106 3.65889 2.54533 2.29533C3.90961 0.931778 5.57506 0.25 7.54167 0.25C9.50828 0.25 11.1741 0.931778 12.5391 2.29533C13.9041 3.65889 14.5855 5.32433 14.5833 7.29167C14.5833 8.08611 14.4569 8.83542 14.2042 9.53958C13.9514 10.2438 13.6083 10.8667 13.175 11.4083L20 18.2333L18.4833 19.75ZM7.54167 12.1667C8.89583 12.1667 10.0471 11.6929 10.9953 10.7453C11.9436 9.79778 12.4174 8.64656 12.4167 7.29167C12.4159 5.93678 11.9422 4.78592 10.9953 3.83908C10.0485 2.89225 8.89728 2.41811 7.54167 2.41667C6.18606 2.41522 5.0352 2.88936 4.08908 3.83908C3.14297 4.78881 2.66883 5.93967 2.66667 7.29167C2.6645 8.64367 3.13864 9.79489 4.08908 10.7453C5.03953 11.6958 6.19039 12.1696 7.54167 12.1667Z"/>
</mask>
<path d="M18.4833 19.75L11.6583 12.925C11.1167 13.3583 10.4938 13.7014 9.78958 13.9542C9.08542 14.2069 8.33611 14.3333 7.54167 14.3333C5.57361 14.3333 3.90817 13.6516 2.54533 12.288C1.1825 10.9244 0.500723 9.259 0.500001 7.29167C0.499278 5.32433 1.18106 3.65889 2.54533 2.29533C3.90961 0.931778 5.57506 0.25 7.54167 0.25C9.50828 0.25 11.1741 0.931778 12.5391 2.29533C13.9041 3.65889 14.5855 5.32433 14.5833 7.29167C14.5833 8.08611 14.4569 8.83542 14.2042 9.53958C13.9514 10.2438 13.6083 10.8667 13.175 11.4083L20 18.2333L18.4833 19.75ZM7.54167 12.1667C8.89583 12.1667 10.0471 11.6929 10.9953 10.7453C11.9436 9.79778 12.4174 8.64656 12.4167 7.29167C12.4159 5.93678 11.9422 4.78592 10.9953 3.83908C10.0485 2.89225 8.89728 2.41811 7.54167 2.41667C6.18606 2.41522 5.0352 2.88936 4.08908 3.83908C3.14297 4.78881 2.66883 5.93967 2.66667 7.29167C2.6645 8.64367 3.13864 9.79489 4.08908 10.7453C5.03953 11.6958 6.19039 12.1696 7.54167 12.1667Z" fill="#757575"/>
<path d="M18.4833 19.75L14.9478 23.2855L18.4833 26.8211L22.0189 23.2855L18.4833 19.75ZM11.6583 12.925L15.1939 9.38947L12.0294 6.22501L8.53486 9.02066L11.6583 12.925ZM7.54167 14.3333V19.3333V14.3333ZM14.5833 7.29167L9.58333 7.28616V7.29167H14.5833ZM13.175 11.4083L9.27066 8.28486L6.47501 11.7794L9.63947 14.9439L13.175 11.4083ZM20 18.2333L23.5355 21.7689L27.0711 18.2333L23.5355 14.6978L20 18.2333ZM7.54167 12.1667V7.16666L7.53098 7.16668L7.54167 12.1667ZM18.4833 19.75L22.0189 16.2145L15.1939 9.38947L11.6583 12.925L8.1228 16.4605L14.9478 23.2855L18.4833 19.75ZM11.6583 12.925L8.53486 9.02066C8.45636 9.08345 8.32624 9.16707 8.10026 9.24819L9.78958 13.9542L11.4789 18.6601C12.6613 18.2357 13.777 17.6332 14.7818 16.8293L11.6583 12.925ZM9.78958 13.9542L8.10026 9.24819C7.97083 9.29466 7.79614 9.33333 7.54167 9.33333V14.3333V19.3333C8.87609 19.3333 10.2 19.1192 11.4789 18.6601L9.78958 13.9542ZM7.54167 14.3333V9.33333C6.86913 9.33333 6.48518 9.15699 6.0818 8.7534L2.54533 12.288L-0.991136 15.8226C1.33116 18.1461 4.27809 19.3333 7.54167 19.3333V14.3333ZM2.54533 12.288L6.0818 8.7534C5.67692 8.3483 5.50025 7.9626 5.5 7.28983L0.500001 7.29167L-4.5 7.2935C-4.4988 10.5554 -3.31192 13.5006 -0.991136 15.8226L2.54533 12.288ZM0.500001 7.29167L5.5 7.28983C5.49975 6.61999 5.67515 6.23637 6.07993 5.8318L2.54533 2.29533L-0.989264 -1.24114C-3.31303 1.0814 -4.5012 4.02868 -4.5 7.2935L0.500001 7.29167ZM2.54533 2.29533L6.07993 5.8318C6.48623 5.42572 6.87159 5.25 7.54167 5.25V0.25V-4.75C4.27852 -4.75 1.33299 -3.56216 -0.989264 -1.24114L2.54533 2.29533ZM7.54167 0.25V5.25C8.21179 5.25 8.59805 5.42579 9.00542 5.83274L12.5391 2.29533L16.0727 -1.24207C13.7501 -3.56224 10.8048 -4.75 7.54167 -4.75V0.25ZM12.5391 2.29533L9.00542 5.83274C9.4097 6.23658 9.58407 6.6184 9.58334 7.28616L14.5833 7.29167L19.5833 7.29717C19.5869 4.03026 18.3985 1.08119 16.0727 -1.24207L12.5391 2.29533ZM14.5833 7.29167H9.58333C9.58333 7.54614 9.54466 7.72083 9.49819 7.85026L14.2042 9.53958L18.9101 11.2289C19.3692 9.95001 19.5833 8.62609 19.5833 7.29167H14.5833ZM14.2042 9.53958L9.49819 7.85026C9.41707 8.07624 9.33345 8.20636 9.27066 8.28486L13.175 11.4083L17.0793 14.5318C17.8832 13.527 18.4857 12.4113 18.9101 11.2289L14.2042 9.53958ZM13.175 11.4083L9.63947 14.9439L16.4645 21.7689L20 18.2333L23.5355 14.6978L16.7105 7.8728L13.175 11.4083ZM20 18.2333L16.4645 14.6978L14.9478 16.2145L18.4833 19.75L22.0189 23.2855L23.5355 21.7689L20 18.2333ZM7.54167 12.1667V17.1667C10.2061 17.1667 12.633 16.1773 14.5295 14.2822L10.9953 10.7453L7.46115 7.20845C7.43535 7.23423 7.42866 7.23649 7.44306 7.22674C7.45819 7.2165 7.48413 7.20145 7.51784 7.18758C7.55147 7.17374 7.57783 7.16724 7.59019 7.16491C7.60162 7.16274 7.58769 7.16667 7.54167 7.16667V12.1667ZM10.9953 10.7453L14.5295 14.2822C16.4282 12.385 17.4181 9.9556 17.4167 7.289L12.4167 7.29167L7.41667 7.29433C7.41669 7.34032 7.41278 7.35402 7.41501 7.34222C7.41741 7.32948 7.42404 7.3026 7.43813 7.26838C7.45224 7.23407 7.46762 7.20753 7.47826 7.19183C7.4884 7.17685 7.48655 7.18307 7.46115 7.20845L10.9953 10.7453ZM12.4167 7.29167L17.4167 7.289C17.4152 4.62659 16.4271 2.19981 14.5309 0.30355L10.9953 3.83908L7.4598 7.37462C7.48498 7.3998 7.48683 7.40597 7.47679 7.39115C7.46628 7.37562 7.45113 7.34945 7.43725 7.31574C7.42341 7.28211 7.41699 7.25596 7.41473 7.24405C7.41265 7.23306 7.41664 7.24757 7.41667 7.29433L12.4167 7.29167ZM10.9953 3.83908L14.5309 0.30355C12.6347 -1.59261 10.2084 -2.58049 7.547 -2.58333L7.54167 2.41667L7.53634 7.41666C7.58359 7.41671 7.5986 7.42075 7.5881 7.41876C7.57667 7.41659 7.55094 7.4103 7.51768 7.39659C7.48433 7.38286 7.45841 7.36786 7.44304 7.35745C7.42838 7.34752 7.43463 7.34944 7.4598 7.37462L10.9953 3.83908ZM7.54167 2.41667L7.547 -2.58333C4.87697 -2.58618 2.44426 -1.59439 0.546822 0.310291L4.08908 3.83908L7.63135 7.36788C7.65614 7.34299 7.66165 7.34174 7.6458 7.3525C7.62922 7.36376 7.60173 7.37968 7.56644 7.39422C7.53123 7.40872 7.50345 7.4156 7.48996 7.41814C7.47743 7.42051 7.49061 7.41662 7.53634 7.41666L7.54167 2.41667ZM4.08908 3.83908L0.546822 0.310291C-1.33979 2.2041 -2.32906 4.62431 -2.33333 7.28365L2.66667 7.29167L7.66666 7.29968C7.66673 7.25376 7.67066 7.23946 7.66863 7.25013C7.66643 7.26169 7.66021 7.28691 7.64693 7.31915C7.63362 7.35144 7.61935 7.37594 7.61008 7.38964C7.6013 7.40264 7.6046 7.39472 7.63135 7.36788L4.08908 3.83908ZM2.66667 7.29167L-2.33333 7.28365C-2.33761 9.95575 -1.34272 12.3846 0.55355 14.2809L4.08908 10.7453L7.62462 7.2098C7.59769 7.18287 7.59483 7.17539 7.60435 7.18943C7.61438 7.20423 7.62965 7.23039 7.64389 7.26497C7.65811 7.2995 7.66508 7.32729 7.66778 7.34161C7.6703 7.35501 7.66659 7.34329 7.66666 7.29968L2.66667 7.29167ZM4.08908 10.7453L0.55355 14.2809C2.44991 16.1772 4.87926 17.1724 7.55236 17.1667L7.54167 12.1667L7.53098 7.16668C7.48786 7.16677 7.47664 7.1631 7.49053 7.16572C7.50534 7.1685 7.53355 7.17559 7.56845 7.18996C7.60338 7.20434 7.6298 7.21975 7.64476 7.22989C7.65897 7.23952 7.65155 7.23673 7.62462 7.2098L4.08908 10.7453Z" fill="#757575" mask="url(#path-1-inside-1_91_808)"/>
</svg>
