<svg width="13" height="7" viewBox="0 0 13 7" fill="none" xmlns="http://www.w3.org/2000/svg">
<path d="M11.4978 0.32603L6.49983 5.19803L1.50183 0.32603C1.41254 0.2388 1.29266 0.189965 1.16783 0.189965C1.043 0.189965 0.923126 0.2388 0.833832 0.32603C0.790594 0.368394 0.756244 0.41896 0.732794 0.474766C0.709344 0.530572 0.697266 0.590497 0.697266 0.65103C0.697266 0.711563 0.709344 0.771487 0.732794 0.827293C0.756244 0.8831 0.790594 0.933666 0.833832 0.97603L6.15083 6.16003C6.24421 6.25104 6.36944 6.30198 6.49983 6.30198C6.63022 6.30198 6.75546 6.25104 6.84883 6.16003L12.1658 0.97703C12.2094 0.934634 12.244 0.883944 12.2676 0.827953C12.2912 0.771962 12.3034 0.711804 12.3034 0.65103C12.3034 0.590256 12.2912 0.530098 12.2676 0.474107C12.244 0.418116 12.2094 0.367426 12.1658 0.32503C12.0765 0.2378 11.9567 0.188965 11.8318 0.188965C11.707 0.188965 11.5871 0.2378 11.4978 0.32503V0.32603Z" fill="black"/>
</svg>
